<svg width="338" height="338" viewBox="0 0 338 338" fill="none" xmlns="http://www.w3.org/2000/svg">
<path d="M167.942 168.407L130.166 130.74V89.0977C130.166 67.2825 147.851 49.5977 169.666 49.5977C191.481 49.5977 209.166 67.2825 209.166 89.0977V130.727L167.942 168.407Z" stroke="#01FF94"/>
<path d="M168.429 169.375L206.023 131.805L247.77 131.805C269.592 131.805 287.273 149.516 287.235 171.339C287.197 193.135 269.498 210.774 247.701 210.736L206.038 210.664L168.429 169.375Z" stroke="#01FF94"/>
<path d="M169.713 168.94L207.166 213.281L207.166 248.275C207.166 270.103 189.436 287.78 167.608 287.715C145.826 287.651 128.22 269.941 128.284 248.158L128.408 206.47L169.713 168.94Z" stroke="#01FF94"/>
<path d="M167.952 170.083L131.269 204.619L93.094 208.915C71.0845 211.392 51.6796 194.481 51.1247 172.339C50.6021 151.492 67.0785 134.168 87.9256 133.646L131.285 132.559L167.952 170.083Z" stroke="#01FF94"/>
<circle cx="125.666" cy="61.0977" r="6" fill="#01FF94"/>
<circle cx="218.666" cy="58.0977" r="6" fill="#01FF94"/>
<circle cx="277.666" cy="122.098" r="6" fill="#01FF94"/>
<circle cx="218.666" cy="278.098" r="6" fill="#01FF94"/>
<circle cx="125.666" cy="282.098" r="6" fill="#01FF94"/>
<circle cx="58.6661" cy="211.098" r="6" fill="#01FF94"/>
<circle cx="58.6661" cy="128.098" r="6" fill="#01FF94"/>
<circle cx="274.666" cy="219.098" r="6" fill="#01FF94"/>
<path d="M168.412 167.928L169.657 114.597L199.823 85.8898C215.626 70.851 240.629 71.4707 255.667 87.2739C270.706 103.077 270.086 128.079 254.283 143.118L224.127 171.816L168.412 167.928Z" stroke="#40A79A"/>
<path d="M168.047 168.949L221.179 170.283L249.958 200.524C265.002 216.333 264.36 241.35 248.525 256.366C232.71 271.365 207.731 270.702 192.732 254.887L164.063 224.656L168.047 168.949Z" stroke="#40A79A"/>
<path d="M169.247 169.579L162.945 227.277L137.595 251.401C121.782 266.449 96.7545 265.791 81.7538 249.934C66.7843 234.11 67.477 209.147 83.3009 194.178L113.585 165.529L169.247 169.579Z" stroke="#40A79A"/>
<path d="M167.205 169.091L116.898 166.326L87.4697 141.633C70.5029 127.396 69.3765 101.681 85.0334 86.0154C99.7751 71.2655 123.683 71.2588 138.433 86.0004L169.11 116.661L167.205 169.091Z" stroke="#40A79A"/>
<g clip-path="url(#clip0_56_5)">
<path d="M167.666 161.518V177.25M155.966 147.098C148.069 147.098 141.666 153.554 141.666 161.518C141.666 175.939 158.566 189.048 167.666 192.098C176.766 189.048 193.666 175.939 193.666 161.518C193.666 153.554 187.264 147.098 179.366 147.098C174.53 147.098 170.253 149.519 167.666 153.225C166.347 151.331 164.596 149.785 162.559 148.719C160.522 147.652 158.261 147.096 155.966 147.098ZM159.866 169.384H175.466H159.866Z" stroke="#0FA958" stroke-width="4" stroke-linecap="round" stroke-linejoin="round"/>
</g>
<defs>
<clipPath id="clip0_56_5">
<rect width="48" height="48" fill="white" transform="translate(145.666 144.098)"/>
</clipPath>
</defs>
</svg>
